# xmcd
#
# Track frame offsets:
#	150
#	20680
#	34890
#	57520
#	74417
#	95387
#	115057
#	133047
#	149987
#	164205
#	180347
#
# Disc length: 2620 seconds
#
# Revision: 1
# Processed by: cddbd v1.5.1PL0 Copyright (c) Steve Scherf et al.
# Submitted via: EasyCDDAExtractor 7.0.6.1
#
DISCID=aa0a3a0b
DTITLE=Crakajak - Crakajak  Sometimes Things Happen
DYEAR=1900
DGENRE=Country
TTITLE0=I'm Not Sure About Love
TTITLE1=Touched A Woman
TTITLE2=Question That I Love You
TTITLE3=Wild Bunch
TTITLE4=Sometimes Things Happen
TTITLE5=Touch My Skin
TTITLE6=Ain't Got Time
TTITLE7=How Can I Miss You
TTITLE8=Country Born
TTITLE9=Riding On 22 Wheels
TTITLE10=Hit The Road Jack
EXTD=
EXTT0=
EXTT1=
EXTT2=
EXTT3=
EXTT4=
EXTT5=
EXTT6=
EXTT7=
EXTT8=
EXTT9=
EXTT10=
PLAYORDER=
